<svg width="80" height="81" viewBox="0 0 80 81" fill="none" xmlns="http://www.w3.org/2000/svg">
<g id="cart" clip-path="url(#clip0_16_362)">
<path id="Vector" d="M53.1371 63.5208C49.4504 63.5208 46.4943 66.4768 46.4943 70.1636C46.4943 71.9253 47.1942 73.6149 48.44 74.8607C49.6857 76.1064 51.3753 76.8063 53.1371 76.8063C54.8988 76.8063 56.5885 76.1064 57.8342 74.8607C59.08 73.6149 59.7798 71.9253 59.7798 70.1636C59.7798 66.4768 56.7906 63.5208 53.1371 63.5208ZM-0.00482178 10.3789V17.0216H6.63792L18.5948 42.2308L14.0778 50.3682C13.5796 51.2982 13.2807 52.3942 13.2807 53.5567C13.2807 55.3185 13.9805 57.0081 15.2263 58.2538C16.472 59.4996 18.1616 60.1994 19.9234 60.1994H59.7798V53.5567H21.3184C21.0981 53.5567 20.8869 53.4692 20.7312 53.3135C20.5755 53.1578 20.488 52.9466 20.488 52.7264C20.488 52.5603 20.5212 52.4274 20.5877 52.3278L23.5769 46.914H48.3211C50.8121 46.914 53.0042 45.519 54.1335 43.493L66.024 22.0037C66.2565 21.4723 66.4226 20.9076 66.4226 20.343C66.4226 19.4621 66.0726 18.6173 65.4498 17.9945C64.8269 17.3716 63.9821 17.0216 63.1012 17.0216H13.9781L10.8561 10.3789H-0.00482178ZM19.9234 63.5208C16.2367 63.5208 13.2807 66.4768 13.2807 70.1636C13.2807 71.9253 13.9805 73.6149 15.2263 74.8607C16.472 76.1064 18.1616 76.8063 19.9234 76.8063C21.6852 76.8063 23.3748 76.1064 24.6205 74.8607C25.8663 73.6149 26.5661 71.9253 26.5661 70.1636C26.5661 66.4768 23.5769 63.5208 19.9234 63.5208Z" fill="white"/>
</g>
<defs>
<clipPath id="clip0_16_362">
<rect width="79.7129" height="79.7129" fill="white" transform="translate(-0.00482178 0.414551)"/>
</clipPath>
</defs>
</svg>
