<svg width="259" height="69" viewBox="0 0 259 69" fill="none" xmlns="http://www.w3.org/2000/svg">
<path d="M0.732346 11.8393C0.732346 5.81844 5.61323 0.937547 11.6341 0.937547H59.629V67.4402H11.6341C5.61324 67.4402 0.732346 62.5593 0.732346 56.5384V11.8393Z" fill="white" stroke="#FFB800" stroke-width="1.14755"/>
<path d="M120.821 0.937547H168.816C174.836 0.937547 179.717 5.81843 179.717 11.8393V56.5384C179.717 62.5593 174.836 67.4402 168.816 67.4402H120.821V0.937547Z" fill="white" stroke="#FFB800" stroke-width="1.14755"/>
<path d="M157.292 36.1908H150.737V43.0991H148.407V36.1908H141.884V34.0219H148.407V27.1619H150.737V34.0219H157.292V36.1908Z" fill="#339944"/>
<path d="M25.214 33.6922H33.1505V36.1182H25.214V33.6922Z" fill="black"/>
<rect x="60.7765" y="0.937547" width="58.8967" height="66.5026" fill="#289402" stroke="#FFB800" stroke-width="1.14755"/>
<path d="M102.939 35.5936C102.939 38.1825 102.657 40.4271 102.092 42.3275C101.541 44.2141 100.784 45.777 99.8198 47.0164C98.8559 48.2557 97.7129 49.1784 96.3909 49.7843C95.0827 50.3902 93.6781 50.6931 92.1771 50.6931C90.6623 50.6931 89.2508 50.3902 87.9426 49.7843C86.6482 49.1784 85.519 48.2557 84.555 47.0164C83.5911 45.777 82.8337 44.2141 82.2829 42.3275C81.7321 40.4271 81.4566 38.1825 81.4566 35.5936C81.4566 33.0047 81.7321 30.7601 82.2829 28.8598C82.8337 26.9594 83.5911 25.3896 84.555 24.1502C85.519 22.8971 86.6482 21.9676 87.9426 21.3617C89.2508 20.7558 90.6623 20.4528 92.1771 20.4528C93.6781 20.4528 95.0827 20.7558 96.3909 21.3617C97.7129 21.9676 98.8559 22.8971 99.8198 24.1502C100.784 25.3896 101.541 26.9594 102.092 28.8598C102.657 30.7601 102.939 33.0047 102.939 35.5936ZM99.1175 35.5936C99.1175 33.3352 98.9247 31.4418 98.5391 29.9132C98.1673 28.3709 97.6578 27.1316 97.0106 26.1952C96.3771 25.2588 95.6404 24.5909 94.8004 24.1915C93.9604 23.7784 93.086 23.5719 92.1771 23.5719C91.2682 23.5719 90.3938 23.7784 89.5538 24.1915C88.7138 24.5909 87.977 25.2588 87.3436 26.1952C86.7101 27.1316 86.2006 28.3709 85.8151 29.9132C85.4432 31.4418 85.2573 33.3352 85.2573 35.5936C85.2573 37.852 85.4432 39.7455 85.8151 41.274C86.2006 42.8026 86.7101 44.035 87.3436 44.9714C87.977 45.9078 88.7138 46.5826 89.5538 46.9957C90.3938 47.3951 91.2682 47.5947 92.1771 47.5947C93.086 47.5947 93.9604 47.3951 94.8004 46.9957C95.6404 46.5826 96.3771 45.9078 97.0106 44.9714C97.6578 44.035 98.1673 42.8026 98.5391 41.274C98.9247 39.7455 99.1175 37.852 99.1175 35.5936Z" fill="white"/>
</svg>
