<svg width="412" height="115" viewBox="0 0 412 115" fill="none" xmlns="http://www.w3.org/2000/svg">
<path d="M49.5776 46.7635H81.7225V84.9279C77.089 88.3203 72.1452 90.7818 66.8911 92.3125C61.6784 93.8433 56.2175 94.6086 50.5084 94.6086C43.0617 94.6086 36.2769 93.4502 30.1541 91.1335C24.0726 88.7754 18.8599 85.5485 14.516 81.4528C10.1721 77.3157 6.82104 72.434 4.46292 66.8076C2.1048 61.1398 0.925736 54.9963 0.925736 48.377C0.925736 41.6336 2.04274 35.4487 4.27675 29.8223C6.51077 24.1545 9.6963 19.2728 13.8334 15.1771C18.0118 11.0814 23.0383 7.89586 28.9129 5.62047C34.8289 3.34509 41.4275 2.2074 48.7088 2.2074C52.4735 2.2074 56.0107 2.51768 59.3203 3.13824C62.63 3.7588 65.6707 4.60689 68.4425 5.68253C71.2557 6.75817 73.8207 8.04066 76.1375 9.53C78.4542 11.0193 80.5228 12.6328 82.3431 14.3704L76.2616 23.6167C75.3101 25.0647 74.0689 25.9541 72.5382 26.2851C71.0489 26.6161 69.4354 26.2437 67.6979 25.1681C66.043 24.1752 64.471 23.3271 62.9816 22.6238C61.5337 21.8791 60.0443 21.2792 58.5136 20.8242C56.9829 20.3691 55.3694 20.0381 53.6732 19.8313C51.977 19.6244 50.074 19.521 47.9641 19.521C44.0339 19.521 40.4967 20.2243 37.3525 21.6309C34.2084 22.9961 31.5193 24.9405 29.2853 27.4641C27.0926 29.9878 25.3964 33.0285 24.1967 36.5864C22.9969 40.1029 22.3971 44.0331 22.3971 48.377C22.3971 53.176 23.059 57.4371 24.3829 61.1605C25.7067 64.8838 27.5684 68.028 29.9679 70.593C32.4088 73.158 35.3047 75.1231 38.6557 76.4883C42.0481 77.8122 45.7921 78.4741 49.8878 78.4741C52.4114 78.4741 54.6868 78.2259 56.714 77.7294C58.7825 77.233 60.789 76.571 62.7334 75.7436V62.0293H53.7974C52.4735 62.0293 51.4392 61.6776 50.6946 60.9743C49.9499 60.271 49.5776 59.3816 49.5776 58.3059V46.7635ZM110.742 39.1927C112.728 35.7176 115.004 32.9871 117.568 31.0013C120.175 29.0155 123.154 28.0226 126.505 28.0226C129.4 28.0226 131.759 28.7053 133.579 30.0705L132.338 44.2192C132.131 45.1294 131.779 45.7499 131.283 46.0809C130.828 46.4119 130.187 46.5774 129.359 46.5774C129.028 46.5774 128.594 46.5567 128.056 46.5153C127.518 46.4739 126.96 46.4326 126.38 46.3912C125.801 46.3085 125.201 46.2464 124.581 46.205C124.002 46.1223 123.464 46.0809 122.967 46.0809C120.154 46.0809 117.899 46.8256 116.203 48.3149C114.548 49.8043 113.142 51.8728 111.983 54.5205V93.6157H92.7461V29.2638H104.164C105.116 29.2638 105.902 29.3465 106.523 29.512C107.184 29.6775 107.722 29.9464 108.136 30.3187C108.591 30.6497 108.922 31.1048 109.129 31.6839C109.377 32.2631 109.584 32.9664 109.749 33.7938L110.742 39.1927ZM168.708 28.2709C173.59 28.2709 178.037 29.0362 182.05 30.5669C186.063 32.0977 189.497 34.2903 192.352 37.1449C195.248 39.9994 197.482 43.4746 199.054 47.5703C200.667 51.6246 201.474 56.196 201.474 61.2846C201.474 66.4146 200.667 71.0481 199.054 75.1851C197.482 79.2808 195.248 82.7766 192.352 85.6726C189.497 88.5271 186.063 90.7405 182.05 92.3125C178.037 93.8433 173.59 94.6086 168.708 94.6086C163.785 94.6086 159.297 93.8433 155.242 92.3125C151.229 90.7405 147.754 88.5271 144.817 85.6726C141.921 82.7766 139.666 79.2808 138.053 75.1851C136.481 71.0481 135.695 66.4146 135.695 61.2846C135.695 56.196 136.481 51.6246 138.053 47.5703C139.666 43.4746 141.921 39.9994 144.817 37.1449C147.754 34.2903 151.229 32.0977 155.242 30.5669C159.297 29.0362 163.785 28.2709 168.708 28.2709ZM168.708 80.3358C173.135 80.3358 176.383 78.7844 178.451 75.6816C180.561 72.5374 181.616 67.7798 181.616 61.4087C181.616 55.0376 180.561 50.3007 178.451 47.1979C176.383 44.0951 173.135 42.5437 168.708 42.5437C164.158 42.5437 160.827 44.0951 158.717 47.1979C156.607 50.3007 155.553 55.0376 155.553 61.4087C155.553 67.7798 156.607 72.5374 158.717 75.6816C160.827 78.7844 164.158 80.3358 168.708 80.3358ZM258.448 44.5295C257.869 45.2328 257.31 45.7913 256.772 46.205C256.235 46.6187 255.469 46.8256 254.476 46.8256C253.525 46.8256 252.656 46.598 251.87 46.143C251.125 45.6879 250.277 45.1914 249.326 44.6536C248.374 44.0744 247.257 43.5573 245.975 43.1022C244.692 42.6472 243.099 42.4196 241.196 42.4196C238.838 42.4196 236.79 42.854 235.053 43.7228C233.357 44.5916 231.95 45.8327 230.833 47.4461C229.716 49.0596 228.889 51.0454 228.351 53.4035C227.813 55.7203 227.544 58.3473 227.544 61.2846C227.544 67.4488 228.723 72.1858 231.081 75.4954C233.481 78.8051 236.77 80.4599 240.948 80.4599C243.182 80.4599 244.94 80.191 246.223 79.6531C247.547 79.074 248.664 78.4534 249.574 77.7915C250.484 77.0882 251.312 76.4469 252.056 75.8677C252.842 75.2886 253.814 74.999 254.973 74.999C256.504 74.999 257.662 75.5575 258.448 76.6745L264.033 83.5627C262.047 85.8381 259.958 87.6997 257.765 89.1477C255.573 90.5543 253.318 91.6713 251.001 92.4987C248.726 93.2848 246.43 93.8226 244.113 94.1122C241.796 94.4431 239.542 94.6086 237.349 94.6086C233.419 94.6086 229.654 93.8639 226.055 92.3746C222.497 90.8853 219.353 88.734 216.622 85.9208C213.933 83.0662 211.782 79.5704 210.168 75.4333C208.596 71.2963 207.81 66.58 207.81 61.2846C207.81 56.6511 208.493 52.3279 209.858 48.3149C211.265 44.2606 213.313 40.7648 216.002 37.8275C218.732 34.8488 222.083 32.5114 226.055 30.8152C230.068 29.119 234.701 28.2709 239.955 28.2709C245.003 28.2709 249.429 29.0776 253.235 30.6911C257.041 32.3045 260.475 34.6626 263.537 37.7654L258.448 44.5295ZM291.192 29.2638V93.6157H271.955V29.2638H291.192ZM293.178 11.6399C293.178 13.1706 292.868 14.6186 292.247 15.9838C291.627 17.3077 290.778 18.4867 289.703 19.521C288.627 20.5139 287.365 21.3206 285.917 21.9412C284.511 22.5204 283.001 22.81 281.387 22.81C279.815 22.81 278.347 22.5204 276.981 21.9412C275.616 21.3206 274.396 20.5139 273.32 19.521C272.286 18.4867 271.458 17.3077 270.838 15.9838C270.259 14.6186 269.969 13.1706 269.969 11.6399C269.969 10.0678 270.259 8.59915 270.838 7.23393C271.458 5.8687 272.286 4.66895 273.32 3.63469C274.396 2.60042 275.616 1.7937 276.981 1.2145C278.347 0.635319 279.815 0.345726 281.387 0.345726C283.001 0.345726 284.511 0.635319 285.917 1.2145C287.365 1.7937 288.627 2.60042 289.703 3.63469C290.778 4.66895 291.627 5.8687 292.247 7.23393C292.868 8.59915 293.178 10.0678 293.178 11.6399ZM309.387 93.6157V42.4817L305.167 41.6129C303.719 41.2819 302.54 40.7648 301.63 40.0615C300.761 39.3582 300.327 38.3239 300.327 36.9587V29.3879H309.387V25.7266C309.387 22.0446 309.966 18.7143 311.125 15.7356C312.324 12.7569 314.021 10.2126 316.213 8.10271C318.447 5.99281 321.157 4.35867 324.343 3.2003C327.528 2.04192 331.148 1.46273 335.202 1.46273C336.774 1.46273 338.222 1.56616 339.546 1.77301C340.87 1.93849 342.256 2.22808 343.704 2.64179L343.332 12.0122C343.29 12.6742 343.125 13.2327 342.835 13.6877C342.546 14.1014 342.153 14.4531 341.656 14.7427C341.201 14.9909 340.705 15.1771 340.167 15.3012C339.629 15.4253 339.091 15.4874 338.553 15.4874C336.857 15.4874 335.347 15.6528 334.023 15.9838C332.699 16.3148 331.582 16.9146 330.672 17.7834C329.804 18.6108 329.142 19.7278 328.687 21.1344C328.231 22.4997 328.004 24.2372 328.004 26.3471V29.3879H343.083V42.5437H328.624V93.6157H309.387ZM411.185 29.2638L376.806 110.309C376.227 111.591 375.524 112.522 374.696 113.101C373.869 113.722 372.545 114.032 370.725 114.032H356.328L368.739 87.9686L343.048 29.2638H360.051C361.54 29.2638 362.678 29.5947 363.464 30.2567C364.291 30.9186 364.891 31.7046 365.264 32.6148L375.813 60.3538C376.806 62.8774 377.613 65.463 378.233 68.1108C378.688 66.7869 379.143 65.463 379.599 64.1392C380.054 62.8153 380.529 61.5121 381.026 60.2297L390.582 32.6148C390.955 31.6633 391.617 30.8772 392.568 30.2567C393.52 29.5947 394.554 29.2638 395.671 29.2638H411.185Z" fill="#FFB800"/>
</svg>
